<svg xmlns="http://www.w3.org/2000/svg" viewBox="0 0 440 1900" width="100%" style="max-width: 440px;">
  <style>
    text { font-family: 'Microsoft YaHei', 'PingFang SC', sans-serif; }
  </style>
  <rect width="440" height="1900" rx="16" fill="#F7F8FA"/>

  <rect x="20" y="20" width="400" height="80" rx="12" fill="#1A1A2E"/>
  <text x="220" y="48" text-anchor="middle" fill="#FFFFFF" font-size="19" font-weight="bold">餐饮品牌A × 茶饮品牌B</text>
  <text x="220" y="76" text-anchor="middle" fill="#A0A0B8" font-size="13">首次异业合作方案对齐 · 2025.06.01</text>

  <rect x="20" y="120" width="400" height="150" rx="12" fill="#FFFFFF" stroke="#E0E0E0" stroke-width="1"/>
  <rect x="20" y="120" width="400" height="38" rx="12" fill="#8E44AD"/>
  <rect x="20" y="146" width="400" height="12" fill="#8E44AD"/>
  <text x="36" y="145" fill="#FFFFFF" font-size="15" font-weight="bold">双方核心诉求</text>
  <text x="36" y="180" fill="#333" font-size="14" font-weight="bold">茶饮品牌B</text>
  <text x="36" y="202" fill="#555" font-size="13">门店能看到品牌A的露出联动（品牌心智）</text>
  <text x="36" y="224" fill="#555" font-size="13">夏季场景互补，全国门店维度合作</text>
  <text x="36" y="248" fill="#333" font-size="14" font-weight="bold">餐饮品牌A</text>

  <rect x="20" y="290" width="400" height="220" rx="12" fill="#FFFFFF" stroke="#E0E0E0" stroke-width="1"/>
  <rect x="20" y="290" width="400" height="38" rx="12" fill="#E74C3C"/>
  <rect x="20" y="316" width="400" height="12" fill="#E74C3C"/>
  <text x="36" y="315" fill="#FFFFFF" font-size="15" font-weight="bold">品牌B提供资源（已敲定）</text>
  <text x="36" y="350" fill="#333" font-size="14" font-weight="bold">线上</text>
  <text x="36" y="372" fill="#555" font-size="13">• 小程序 Banner + 公众号推文</text>
  <text x="36" y="392" fill="#555" font-size="13">• 微博 + 小红书区域矩阵号</text>
  <text x="36" y="422" fill="#333" font-size="14" font-weight="bold">线下</text>
  <text x="36" y="444" fill="#555" font-size="13">• 门店TV轮播屏（多台/店）</text>
  <text x="36" y="464" fill="#555" font-size="13">• 覆盖数千家门店</text>
  <rect x="36" y="478" width="370" height="20" rx="4" fill="#FDEDEC"/>
  <text x="46" y="493" fill="#C0392B" font-size="12">纸质物料本期不做，先跑MVP看效果</text>

  <rect x="20" y="530" width="400" height="180" rx="12" fill="#FFFFFF" stroke="#E0E0E0" stroke-width="1"/>
  <rect x="20" y="530" width="400" height="38" rx="12" fill="#4A6CF7"/>
  <rect x="20" y="556" width="400" height="12" fill="#4A6CF7"/>
  <text x="36" y="555" fill="#FFFFFF" font-size="15" font-weight="bold">品牌A提供资源</text>
  <text x="36" y="590" fill="#333" font-size="14" font-weight="bold">线上（基本确定）</text>
  <text x="36" y="612" fill="#555" font-size="13">• 公众号 / 微博 / 视频号 / 小红书</text>
  <text x="36" y="632" fill="#555" font-size="13">• 私域社群 + 短信</text>
  <text x="36" y="660" fill="#333" font-size="14" font-weight="bold">线下</text>
  <text x="36" y="682" fill="#555" font-size="13">• 门店电子屏（需逐个协调）</text>
  <rect x="36" y="696" width="370" height="4" rx="2" fill="#F0F0F0"/>

  <rect x="20" y="730" width="400" height="210" rx="12" fill="#FFFFFF" stroke="#E0E0E0" stroke-width="1"/>
  <rect x="20" y="730" width="400" height="38" rx="12" fill="#27AE60"/>
  <rect x="20" y="756" width="400" height="12" fill="#27AE60"/>
  <text x="36" y="755" fill="#FFFFFF" font-size="15" font-weight="bold">领券链路（已敲定）</text>
  <text x="36" y="790" fill="#555" font-size="13">1. 品牌B小程序Banner → 进入H5领券页</text>
  <text x="36" y="814" fill="#555" font-size="13">2. H5展示双方券（品牌A + 品牌B）</text>
  <text x="36" y="838" fill="#555" font-size="13">3. 点品牌B券 → 直接领到卡包</text>
  <text x="36" y="862" fill="#555" font-size="13">4. 点品牌A券 → 跳转品牌A小程序领取</text>
  <rect x="36" y="882" width="370" height="44" rx="6" fill="#FFF3E0"/>
  <text x="46" y="900" fill="#E65100" font-size="12" font-weight="bold">关键决定：不用CDK，直接领券链接跳转</text>
  <text x="46" y="918" fill="#E65100" font-size="12">用H5热区跳转，双方券同页展示满足审核</text>

  <rect x="20" y="960" width="400" height="160" rx="12" fill="#FFFFFF" stroke="#E0E0E0" stroke-width="1"/>
  <rect x="20" y="960" width="400" height="38" rx="12" fill="#E67E22"/>
  <rect x="20" y="986" width="400" height="12" fill="#E67E22"/>
  <text x="36" y="985" fill="#FFFFFF" font-size="15" font-weight="bold">时间节奏</text>
  <rect x="36" y="1010" width="8" height="40" rx="4" fill="#E67E22"/>
  <text x="54" y="1026" fill="#333" font-size="13" font-weight="bold">本周内</text>
  <text x="54" y="1044" fill="#555" font-size="12">双方确认投放城市，提供Logo素材</text>
  <rect x="36" y="1058" width="8" height="40" rx="4" fill="#E67E22"/>
  <text x="54" y="1074" fill="#333" font-size="13" font-weight="bold">下周</text>
  <text x="54" y="1092" fill="#555" font-size="12">出主KV + 搭建H5领券页 + 建券测试</text>
  <rect x="36" y="1106" width="8" height="4" rx="2" fill="#27AE60"/>

  <rect x="20" y="1140" width="400" height="360" rx="12" fill="#FFFFFF" stroke="#E0E0E0" stroke-width="1"/>
  <rect x="20" y="1140" width="400" height="38" rx="12" fill="#1A1A2E"/>
  <rect x="20" y="1166" width="400" height="12" fill="#1A1A2E"/>
  <text x="36" y="1165" fill="#FFFFFF" font-size="15" font-weight="bold">待办清单</text>
  <text x="36" y="1200" fill="#FF6B6B" font-size="14" font-weight="bold">品牌A</text>
  <rect x="36" y="1212" width="18" height="18" rx="3" fill="none" stroke="#FF6B6B" stroke-width="2"/>
  <text x="62" y="1227" fill="#333" font-size="13">提供Logo + VI素材包（AI格式）</text>
  <rect x="36" y="1236" width="18" height="18" rx="3" fill="none" stroke="#FF6B6B" stroke-width="2"/>
  <text x="62" y="1251" fill="#333" font-size="13">建券 → 提供最终领券链接</text>
  <rect x="36" y="1260" width="18" height="18" rx="3" fill="none" stroke="#FF6B6B" stroke-width="2"/>
  <text x="62" y="1275" fill="#333" font-size="13">敲定重点城市 + 可落地门店数量</text>
  <rect x="36" y="1284" width="18" height="18" rx="3" fill="none" stroke="#FF6B6B" stroke-width="2"/>
  <text x="62" y="1299" fill="#333" font-size="13">各尺寸物料适配</text>
  <text x="36" y="1334" fill="#4ECDC4" font-size="14" font-weight="bold">品牌B</text>
  <rect x="36" y="1346" width="18" height="18" rx="3" fill="none" stroke="#4ECDC4" stroke-width="2"/>
  <text x="62" y="1361" fill="#333" font-size="13">确认朋友圈投放城市</text>
  <rect x="36" y="1370" width="18" height="18" rx="3" fill="none" stroke="#4ECDC4" stroke-width="2"/>
  <text x="62" y="1385" fill="#333" font-size="13">出主KV视觉 + 搭建H5领券页</text>
  <rect x="36" y="1394" width="18" height="18" rx="3" fill="none" stroke="#4ECDC4" stroke-width="2"/>
  <text x="62" y="1409" fill="#333" font-size="13">确认权益券面（免单+买赠+折扣）</text>
  <rect x="36" y="1418" width="18" height="18" rx="3" fill="none" stroke="#4ECDC4" stroke-width="2"/>
  <text x="62" y="1433" fill="#333" font-size="13">TV轮播素材上线</text>
  <rect x="36" y="1458" width="370" height="24" rx="4" fill="#E8F8F5"/>
  <text x="46" y="1475" fill="#1E8449" font-size="12">原则：小量快跑MVP，细水长流，不求大投入</text>

  <rect x="20" y="1520" width="400" height="120" rx="12" fill="#FFFFFF" stroke="#E0E0E0" stroke-width="1"/>
  <rect x="20" y="1520" width="400" height="38" rx="12" fill="#95A5A6"/>
  <rect x="20" y="1546" width="400" height="12" fill="#95A5A6"/>
  <text x="36" y="1545" fill="#FFFFFF" font-size="15" font-weight="bold">备注</text>
  <text x="36" y="1580" fill="#555" font-size="13">• 品牌A为加盟体系，电子屏无法远程统控</text>
  <text x="36" y="1602" fill="#555" font-size="13">• 需提前两周给素材，内部审核不严格</text>
  <text x="36" y="1624" fill="#555" font-size="13">• 沟通方式：微信群为主，聊不清拉短会</text>
</svg>
